<svg width="21" height="21" viewBox="0 0 21 21" fill="none" xmlns="http://www.w3.org/2000/svg">
<g id="octicon:arrow-up-16">
<path id="Vector" d="M10.7751 4.83753C10.9509 4.66197 11.1892 4.56335 11.4376 4.56335C11.686 4.56335 11.9243 4.66197 12.1001 4.83753L17.4126 10.15C17.5882 10.3258 17.6868 10.5641 17.6868 10.8125C17.6868 11.061 17.5882 11.2992 17.4126 11.475L12.1001 16.7875C11.9223 16.953 11.6872 17.0432 11.4443 17.039C11.2014 17.0348 10.9696 16.9366 10.7976 16.765C10.626 16.593 10.5278 16.3612 10.5236 16.1183C10.5195 15.8754 10.6096 15.6404 10.7751 15.4625L14.4876 11.75H5.18759C4.93895 11.75 4.7005 11.6513 4.52468 11.4754C4.34886 11.2996 4.25009 11.0612 4.25009 10.8125C4.25009 10.5639 4.34886 10.3254 4.52468 10.1496C4.7005 9.9738 4.93895 9.87503 5.18759 9.87503H14.4876L10.7751 6.16253C10.5995 5.98675 10.5009 5.74847 10.5009 5.50003C10.5009 5.25159 10.5995 5.01331 10.7751 4.83753Z" fill="black"/>
</g>
</svg>
