<svg width="25" height="24" viewBox="0 0 25 24" fill="none" xmlns="http://www.w3.org/2000/svg">
<g id="ic:round-check">
<path id="Vector" d="M9.4999 16.17L6.0299 12.7C5.84292 12.513 5.58933 12.408 5.3249 12.408C5.06048 12.408 4.80688 12.513 4.6199 12.7C4.43292 12.887 4.32788 13.1406 4.32788 13.405C4.32788 13.5359 4.35367 13.6656 4.40377 13.7865C4.45388 13.9075 4.52732 14.0174 4.6199 14.11L8.7999 18.29C9.1899 18.68 9.8199 18.68 10.2099 18.29L20.7899 7.71C20.9769 7.52302 21.0819 7.26943 21.0819 7.005C21.0819 6.74057 20.9769 6.48698 20.7899 6.3C20.6029 6.11302 20.3493 6.00798 20.0849 6.00798C19.8205 6.00798 19.5669 6.11302 19.3799 6.3L9.4999 16.17Z" fill="white"/>
</g>
</svg>
